<?xml version="1.0" encoding="utf-8"?>
<!-- Generator: Adobe Illustrator 26.4.1, SVG Export Plug-In . SVG Version: 6.00 Build 0)  -->
<svg version="1.1" id="Capa_1" xmlns="http://www.w3.org/2000/svg" xmlns:xlink="http://www.w3.org/1999/xlink" x="0px" y="0px"
	 viewBox="0 0 66 66" style="enable-background:new 0 0 66 66;" xml:space="preserve">
<style type="text/css">
	.st0{fill:#BCA177;}
</style>
<path class="st0" d="M33,0.5C15.4,0.2,0.6,15,0.5,32.8C0.4,49.6,13.9,65.3,32.8,65.4C51,65.5,65.4,51.1,65.5,33
	C65.6,14.7,50.3,0.1,33,0.5z M33,63.1c-16.6,0-30.2-13.6-30.1-30.2c0-16.7,13.5-30.1,30.2-30.1c16.7,0,30.1,13.6,30.1,30.2
	C63.2,49.6,49.5,63.2,33,63.1z"/>
<g>
	<path class="st0" d="M26.8,23.8c-0.2-0.1-0.3-0.3-0.5-0.5c-3.5-3.5-6.9-6.9-10.5-10.5C21.5,8,28.1,5.7,35.4,6.5
		c11.1,1.2,18.9,7.1,22.7,17.7c3.4,9.4,1.4,18.1-4.9,26.1c-1.1-1.1-2-2-3-3c-0.2-0.2-0.1-0.7,0-1c1-3.4,0.3-6.5-1.8-9.3
		c-2.6-3.3-5.2-6.7-7.8-10c-1-1.3-1.5-2.7-1.5-4.3c0-2.3,0-4.5,0-6.8c0-0.3,0.3-0.9,0.6-1c0.9-0.4,1.5-1,1.3-2
		c-0.1-1-0.9-1.5-1.9-1.6c-0.2,0-0.4,0-0.6,0c-3.7,0-7.4,0-11,0c-0.5,0-1.1,0-1.5,0.2c-1.2,0.6-1.5,2.5-0.3,3
		c1.5,0.6,1.3,1.7,1.3,2.8c0,2.2,0,4.3,0,6.5C27,23.8,26.9,23.8,26.8,23.8z"/>
	<path class="st0" d="M47.9,50.1c0.9,0.9,1.6,1.8,2.5,2.7c-6.5,5.4-13.9,7.6-22.2,5.9c-10.6-2.1-17.7-8.6-20.6-19
		c-2.5-8.9-0.4-17,5.3-24.1c4,4,8,8,12.1,12.1c-0.1,0.2-0.4,0.6-0.7,1c-2.2,2.8-4.5,5.6-6.6,8.5c-4.5,6-1.3,14.2,6,15.7
		c0.8,0.2,1.6,0.2,2.5,0.2c4.5,0,8.9-0.1,13.4,0C42.7,53.2,45.5,52.5,47.9,50.1z"/>
	<path class="st0" d="M33.2,40.2c3.9,0,7.9,0,11.8,0c1,0,1.5,0.4,1.7,1.3c1.1,3.9-1.7,7.9-5.8,7.9c-5.2,0-10.4,0-15.6,0
		c-4.1,0-7-4.1-5.7-8.1c0.3-0.8,0.7-1.2,1.6-1.2C25.2,40.2,29.2,40.2,33.2,40.2z M33.1,45c0.9,0,1.7-0.7,1.7-1.6
		c0-0.8-0.7-1.6-1.6-1.6c-0.9,0-1.7,0.7-1.7,1.6C31.5,44.3,32.2,45,33.1,45z M27.7,45.8c0-0.9-0.8-1.6-1.7-1.6
		c-0.9,0-1.5,0.7-1.5,1.6c0,0.9,0.7,1.6,1.6,1.6C27,47.4,27.8,46.7,27.7,45.8z"/>
	<path class="st0" d="M43.3,36.4c-6.9,0-13.5,0-20.3,0c0.3-0.5,0.5-0.8,0.8-1.1c1.6-2.1,3.2-4.1,4.8-6.2c1.5-1.9,2.2-4,2.2-6.4
		c0-2.5,0-5.1,0-7.8c1.4,0,2.8,0,4.1,0c0.2,0,0.5,0.6,0.5,0.9c0,2.3,0,4.5,0,6.8c0,2.4,0.7,4.6,2.2,6.5
		C39.5,31.5,41.3,33.8,43.3,36.4z"/>
</g>
</svg>
