
<svg version="1.1" id="Capa_1" xmlns="http://www.w3.org/2000/svg" xmlns:xlink="http://www.w3.org/1999/xlink" x="0px" y="0px"
	 viewBox="0 0 66 66" style="enable-background:new 0 0 66 66;" xml:space="preserve"l>


	<path class="st0" d="M32,0.64c17.03-0.37,32.14,14.01,32.04,32.02c-0.1,17.82-14.3,32.07-32.24,31.97
		C13.21,64.54-0.14,49.01-0.04,32.44C0.06,14.96,14.68,0.31,32,0.64z M32.08,2.25C15.25,2.24,1.64,15.77,1.62,32.56
		C1.59,49.32,15.23,62.99,32,63.02c16.66,0.03,30.39-13.65,30.42-30.31C62.44,15.91,48.86,2.27,32.08,2.25z"/>
	<path class="st0" d="M25.63,23.58c-0.17-0.15-0.35-0.3-0.52-0.46c-3.49-3.49-6.98-6.98-10.62-10.61
		c5.79-4.92,12.39-7.23,19.79-6.44c11.21,1.19,19.06,7.2,22.85,17.81c3.39,9.48,1.38,18.24-4.97,26.27
		c-1.07-1.07-2.06-2.01-2.98-3.03c-0.16-0.18-0.06-0.68,0.03-1c0.99-3.43,0.32-6.53-1.86-9.33c-2.62-3.37-5.22-6.74-7.85-10.09
		c-1-1.28-1.49-2.69-1.47-4.31c0.02-2.27-0.02-4.54,0.04-6.81c0.01-0.35,0.33-0.87,0.64-1c0.92-0.4,1.47-1.01,1.35-2.01
		c-0.13-1.05-0.87-1.56-1.9-1.66c-0.2-0.02-0.4-0.01-0.6-0.01c-3.71,0-7.41-0.01-11.12,0.01c-0.51,0-1.06,0.05-1.51,0.25
		c-1.25,0.56-1.52,2.48-0.3,2.98c1.55,0.63,1.31,1.7,1.31,2.85c-0.01,2.17,0,4.35,0,6.52C25.85,23.53,25.74,23.56,25.63,23.58z"/>
	<path class="st0" d="M46.86,50.08c0.88,0.94,1.66,1.77,2.55,2.72c-6.51,5.47-14.02,7.62-22.32,5.97
		C16.39,56.64,9.3,50.09,6.32,39.6c-2.55-8.97-0.42-17.13,5.33-24.26c4.07,4.08,8.06,8.07,12.17,12.18
		c-0.12,0.17-0.41,0.58-0.72,0.97c-2.22,2.87-4.49,5.69-6.66,8.6c-4.51,6.04-1.36,14.31,6,15.83c0.81,0.17,1.66,0.16,2.5,0.16
		c4.5,0.01,9.01-0.07,13.51,0.03C41.62,53.18,44.44,52.46,46.86,50.08z"/>
	<path class="st0" d="M32.02,40.07c3.98,0,7.96,0.03,11.94-0.02c1.04-0.02,1.49,0.38,1.76,1.32c1.14,3.96-1.72,7.95-5.85,7.99
		c-5.25,0.05-10.51,0.05-15.76,0c-4.16-0.04-7.03-4.17-5.77-8.13c0.27-0.85,0.7-1.19,1.62-1.18C23.98,40.1,28,40.07,32.02,40.07z
		 M31.92,44.94c0.92,0.05,1.72-0.69,1.73-1.58c0.01-0.84-0.71-1.6-1.57-1.65c-0.89-0.04-1.72,0.72-1.74,1.6
		C30.34,44.15,31.06,44.9,31.92,44.94z M26.55,45.68c-0.02-0.91-0.79-1.62-1.73-1.58c-0.89,0.04-1.54,0.74-1.53,1.64
		c0.01,0.89,0.69,1.57,1.59,1.58C25.81,47.32,26.57,46.58,26.55,45.68z"/>
	<path class="st0" d="M42.26,36.22c-6.93,0-13.56,0-20.42,0c0.32-0.47,0.54-0.82,0.79-1.14c1.61-2.08,3.21-4.16,4.84-6.23
		c1.49-1.89,2.2-4.02,2.19-6.42c-0.02-2.54,0-5.09,0-7.82c1.45,0,2.8-0.04,4.13,0.04c0.21,0.01,0.54,0.6,0.55,0.93
		c0.05,2.27,0.05,4.54,0.02,6.81c-0.03,2.45,0.72,4.61,2.23,6.53C38.43,31.27,40.25,33.63,42.26,36.22z"/>

</svg>
