<?xml version="1.0" encoding="utf-8"?>
<!-- Generator: Adobe Illustrator 26.4.1, SVG Export Plug-In . SVG Version: 6.00 Build 0)  -->
<svg version="1.1" id="Capa_1" xmlns="http://www.w3.org/2000/svg" xmlns:xlink="http://www.w3.org/1999/xlink" x="0px" y="0px"
	 viewBox="0 0 66 66" style="enable-background:new 0 0 66 66;" xml:space="preserve">
<style type="text/css">
	.st0{fill:#BCA177;}
</style>
<path class="st0" d="M33,1C15.3,1,1,15.3,1,33c0,13.6,8.4,25.1,20.3,29.8c-0.9-5.8-1-13.9,1-21.1c3.2-11.6,15.5-18.4,15.5-18.4
	c-1.9,1-11.2,3.5-16.4,11.2c-4.9,7.3-4.6,14.6-4.9,14.1c-4.8-7.8-5.8-19.4,2.9-26.2c11.6-8.7,27.2-5.8,30.1-2.9
	c-5.8,8.7-3.8,14.2-5.8,20.4c-2.9,8.7-9.7,12.6-20.4,12.6c0,3.9,0.9,8.2,1.9,11.6c0,0-0.1,0-0.1,0c2.5,0.6,5.1,1,7.8,1
	c17.7,0,32-14.3,32-32S50.7,1,33,1z"/>
</svg>
