<?xml version="1.0" encoding="utf-8"?>
<!-- Generator: Adobe Illustrator 26.4.1, SVG Export Plug-In . SVG Version: 6.00 Build 0)  -->
<svg version="1.1" id="Capa_1" xmlns="http://www.w3.org/2000/svg" xmlns:xlink="http://www.w3.org/1999/xlink" x="0px" y="0px"
	 viewBox="0 0 66 66" style="enable-background:new 0 0 66 66;" xml:space="preserve">
<style type="text/css">
	.st0{fill:#BCA177;}
</style>
<path class="st0" d="M33.27,0.73c-17.67,0-32,14.33-32,32c0,13.55,8.43,25.13,20.32,29.79c-0.93-5.8-0.97-13.9,1.01-21.06
	c3.2-11.59,15.52-18.42,15.52-18.42C36.18,24,26.9,26.56,21.7,34.19c-4.95,7.25-4.56,14.64-4.92,14.06
	c-4.85-7.76-5.82-19.39,2.91-26.18c11.64-8.73,27.15-5.82,30.06-2.91c-5.82,8.73-3.76,14.19-5.82,20.36
	c-2.91,8.73-9.7,12.61-20.36,12.61c0,3.88,0.9,8.24,1.94,11.64c-0.02,0-0.05,0-0.08,0c2.51,0.63,5.13,0.97,7.84,0.97
	c17.67,0,32-14.33,32-32S50.94,0.73,33.27,0.73z"/>
</svg>
