<?xml version="1.0" encoding="utf-8"?>
<!-- Generator: Adobe Illustrator 26.4.1, SVG Export Plug-In . SVG Version: 6.00 Build 0)  -->
<svg version="1.1" id="Capa_1" xmlns="http://www.w3.org/2000/svg" xmlns:xlink="http://www.w3.org/1999/xlink" x="0px" y="0px"
	 viewBox="0 0 66 66" style="enable-background:new 0 0 66 66;" xml:space="preserve">
<style type="text/css">
	.st0{fill:#BCA177;}
</style>
<g>
	<g>
		<g>
			<path class="st0" d="M33,1C15.3,1,1,15.3,1,33s14.3,32,32,32s32-14.3,32-32S50.7,1,33,1z M33,61.5c-7.5,0-14.3-2.9-19.4-7.6
				l6.4-6.4c-0.3-1-0.6-2-0.7-3.1l0-0.2l-0.1-0.8l-8,8C7,46.4,4.5,40,4.5,33C4.5,17.3,17.3,4.5,33,4.5c7,0,13.4,2.5,18.4,6.7
				l-9.5,9.5c1.2,0,2.4,0.2,3.5,0.6l0.6,0.2l7.9-7.9c4.7,5.1,7.6,11.9,7.6,19.4C61.5,48.7,48.7,61.5,33,61.5z"/>
		</g>
		<g>
			<path class="st0" d="M33,22.3c5.8-2.9,4.8-10.7,0-14.5C26.2,13.6,29.1,21.4,33,22.3z"/>
		</g>
		<g>
			<path class="st0" d="M33,27.8c-1.3-4.6-7-6.8-11.9-5.1c1.1,8.6,8.8,10.5,11.9,8c3.1,2.5,10.8,0.6,11.9-8
				C40,21.1,34.3,23.3,33,27.8z"/>
		</g>
		<g>
			<path class="st0" d="M33,38.5c-1.3-4.6-7-6.8-11.9-5.1c1.1,8.6,8.8,10.5,11.9,8c3.1,2.5,10.8,0.6,11.9-8
				C40,31.8,34.3,33.9,33,38.5z"/>
		</g>
		<g>
			<path class="st0" d="M45,43.9c-2.7-0.9-5.9-0.7-8.3,0.6c-1.7,0.9-3,2.3-3.7,4c-0.6-1.7-1.9-3-3.7-4c-2.5-1.3-5.6-1.5-8.3-0.6
				L20.8,44l0,0.2c0.5,3.7,2.2,6.6,4.9,8.1c2,1.1,4.2,1.4,6,0.8v4.4h2.4v-4.4c1.8,0.6,4.1,0.3,6-0.8c2.7-1.6,4.5-4.4,4.9-8.1l0-0.2
				L45,43.9z"/>
		</g>
	</g>
</g>
</svg>
