<?xml version="1.0" encoding="utf-8"?>
<!-- Generator: Adobe Illustrator 26.4.1, SVG Export Plug-In . SVG Version: 6.00 Build 0)  -->
<svg version="1.1" id="Capa_1" xmlns="http://www.w3.org/2000/svg" xmlns:xlink="http://www.w3.org/1999/xlink" x="0px" y="0px"
	 viewBox="0 0 66 66" style="enable-background:new 0 0 66 66;" xml:space="preserve">
<style type="text/css">
	.st0{fill:#BCA177;}
</style>
<g>
	<g>
		<g>
			<path class="st0" d="M33.2,0.66c-17.95,0-32.5,14.55-32.5,32.5s14.55,32.5,32.5,32.5s32.5-14.55,32.5-32.5S51.15,0.66,33.2,0.66z
				 M33.2,62.12c-7.6,0-14.52-2.94-19.69-7.75l6.53-6.53c-0.34-0.98-0.6-2.04-0.74-3.15l-0.03-0.2l-0.1-0.8l-8.12,8.12
				c-4.25-5.04-6.82-11.54-6.82-18.64C4.25,17.2,17.23,4.21,33.2,4.21c7.1,0,13.6,2.57,18.64,6.82l-9.62,9.62
				c1.23,0.04,2.44,0.25,3.59,0.65l0.57,0.2l8.02-8.02c4.8,5.17,7.75,12.09,7.75,19.69C62.15,49.13,49.17,62.12,33.2,62.12z"/>
		</g>
		<g>
			<path class="st0" d="M33.2,22.33c5.91-2.95,4.92-10.83,0-14.68C26.31,13.47,29.26,21.34,33.2,22.33z"/>
		</g>
		<g>
			<path class="st0" d="M33.21,27.93c-1.28-4.66-7.11-6.86-12.09-5.14c1.1,8.75,8.96,10.66,12.09,8.16
				c3.13,2.51,10.99,0.59,12.09-8.16C40.32,21.07,34.49,23.27,33.21,27.93z"/>
		</g>
		<g>
			<path class="st0" d="M33.21,38.76c-1.28-4.66-7.11-6.86-12.09-5.14c1.1,8.75,8.96,10.66,12.09,8.16
				c3.13,2.51,10.99,0.59,12.09-8.16C40.32,31.9,34.49,34.1,33.21,38.76z"/>
		</g>
		<g>
			<path class="st0" d="M45.38,44.22c-2.78-0.96-5.94-0.75-8.45,0.58c-1.76,0.93-3.06,2.34-3.72,4.02
				c-0.66-1.68-1.96-3.09-3.72-4.02c-2.51-1.32-5.67-1.54-8.45-0.58l-0.19,0.07l0.03,0.2c0.47,3.75,2.24,6.68,4.99,8.25
				c1.98,1.14,4.29,1.43,6.11,0.79v4.5h2.46v-4.5c1.82,0.63,4.13,0.34,6.11-0.79c2.75-1.58,4.52-4.51,4.99-8.25l0.03-0.2
				L45.38,44.22z"/>
		</g>
	</g>
</g>
</svg>
